<?xml version="1.0" encoding="utf-8"?>
<svg xmlns="http://www.w3.org/2000/svg" id="Layer_1" data-name="Layer 1" viewBox="0 0 100 100">
  <path d="M11.9364,94.8778c.0869-.5304.2137-1.053.3755-1.5655.0419-.1328.0872-.2644.1323-.3962.0859-.2513-.1154.3026-.0195.0544.0255-.066.0503-.1324.0762-.1983.1055-.2685.2192-.5337.3399-.7956.5167-1.1209,1.1382-2.1956,1.8362-3.213.1848-.2693.3749-.535.5698-.7971.0634-.0852.4192-.5168.1363-.1844.1081-.127.2066-.2634.3113-.3933.4273-.5304.8731-1.0458,1.3343-1.547.9487-1.031,1.962-2.0024,3.0246-2.9153,1.0684-.9178,2.1876-1.777,3.3515-2.57l.072-.049c.1205-.0813.096-.0651-.0733.0484.0569-.0072.1681-.1116.217-.1437.1445-.0949.2896-.1888.4354-.2817.2891-.184.5808-.3639.8752-.5392.5759-.343,1.1619-.6691,1.7583-.9751,1.1191-.5743,2.2757-1.0807,3.4693-1.4794.1403-.0469.2812-.0922.4225-.136.0699-.0216.14-.0423.21-.0636.2626-.0802-.3204.088-.0569.016.2737-.0747.5479-.1463.8246-.2088.5321-.1201,1.0695-.2085,1.6116-.2692.5029-.0563,1.0084-.0937,1.5145-.1009.0568-.0008.1135-.0004.1703-.0013.2385-.0037-.3752-.0089-.1398-.0011.1059.0035.2119.0052.3178.0104.1965.0097.3928.0253.5882.049.1766.0214.3524.0491.5266.0853.0807.0168.1602.0383.2407.0558.2039.0444-.4083-.1241-.2123-.0589.0363.0121.0735.022.11.0337.1374.0442.2726.0953.4038.1554.0612.028.1198.0614.1807.0898-.5449-.2544-.2899-.1668-.1552-.0792.1872.1216.4561.4491-.0026-.0432.0778.0835.1562.1649.2319.2506.1631.1846-.257-.4185-.1162-.1627.0266.0483.0555.095.0803.1443.0761.1514.0901.3595-.0719-.193.0156.0532.0383.1047.0543.1579.0581.1928.0503.5845.0208-.0115.0059.1197.024.2377.0251.3582.0015.1625-.0808.6122.012.0858-.0236.1339-.0381.2688-.0661.4022-.061.2909-.1528.5755-.2577.8534-.0419.1111-.1894.3883.0154-.0269-.0364.0738-.0652.1522-.0991.2273-.0707.1566-.1456.3113-.2237.4644-.349.6837-.7611,1.3346-1.202,1.9624-.5013.7139-1.0431,1.3991-1.6085,2.0631-.1491.1751-.3.3488-.4524.521-.0771.0871-.1546.1739-.2325.2604-.039.0433-.2718.2976-.1431.1584-.3223.3486-.6506.6917-.9841,1.0296-1.3297,1.347-2.7401,2.6172-4.2221,3.7948-1.2656,1.0056-2.5877,1.9633-4.0056,2.7442-.2826.1557-.5698.3029-.8626.4387l.3727-.1717c-.1601.0687-.3171.1445-.475.2181l.3731-.1716c-.3448.1471-.7014.2725-1.066.3604l1.719,3.3353c.5976-.4131,1.2333-.7866,1.8978-1.0817l-.3948.173c.8061-.3499,1.6531-.5645,2.5283-.6425l-.4305.0376c.6818-.0557,1.3651-.0331,2.0444.0442.3465.0394.6913.0925,1.0345.1543.1661.0299.3318.062.4972.0955.0361.0073.2231.0458.1619.0329-.0491-.0103.152.0335.2002.0443,1.5682.3513,3.1318.7854,4.7365.936,1.7267.1621,3.3844-.0433,5.0121-.6292,1.6199-.5831,3.0755-1.6188,4.5298-2.5197,1.7257-1.069,3.4987-2.1402,5.4702-2.686l-.4393.1197c.6149-.162,1.2632-.2869,1.9019-.2631l-.4542-.0251c.3917.0237.7667.1259,1.1355.2555l-.4435-.1576c.8744.3136,1.716.7244,2.6178.9596,1.152.3004,2.2937.2374,3.4326-.073.891-.2428,1.7263-.6405,2.531-1.0877,1.0183-.566,1.9908-1.1702,2.9102-1.8847.4358-.3387.852-.6822,1.2427-1.0722.1327-.1325.2643-.2656.393-.4021.4144-.4393-.1541.1245.0334-.0176.0576-.0436.1111-.0991.1646-.1472.0853-.0766.1705-.1534.2554-.2304.0413-.0374.0831-.0745.1238-.1126l.0609-.0556c.2866-.3102.3265-.3468.1198-.1096.6371-.4846.6479-1.5389.2231-2.1642-.4145-.6101-1.228-1.0356-1.8994-.525.2836-.1395.2376-.1108-.1378.086l-.0701.0436c-.0721.0436-.1432.0888-.2149.1329-.0738.0454-.1476.0907-.2216.1359-.0396.0242-.3702.2163-.1404.0899.2222-.1222-.0663.0293-.1115.052-.0811.0408-.1624.0813-.2437.1217-.2783.1381-.5554.2722-.82.4372l.3639-.2027c-.501.272-.9862.5719-1.4816.8539l.3806-.2154c-.6004.3379-1.198.6786-1.794,1.0241l.3923-.2265c-1.2284.6998-2.5451,1.3902-3.931,1.7136l.4491-.1022c-.4686.0979-.9367.1305-1.4141.0944l.4564.0364c-.5607-.0541-1.0993-.1989-1.629-.3866l.4432.1617c-.9456-.3482-1.894-.8478-2.9077-.948-1.2795-.1264-2.5551.1889-3.7522.6217-2.2596.817-4.2622,2.2158-6.2899,3.4742-1.0645.6606-2.1426,1.3281-3.3309,1.7429l.4219-.1442c-.8667.2905-1.7629.447-2.6759.4813l.4415-.0147c-2.1091.0575-4.1436-.5251-6.192-.9384-1.8817-.3797-3.8296-.5511-5.7123-.0648-1.3046.337-2.5356.9623-3.5776,1.8125-.6917.5644-.7644,1.449-.3661,2.2202.362.701,1.2385,1.3938,2.0851,1.115,1.4418-.4747,2.794-1.335,4.0257-2.205,1.5989-1.1293,3.0985-2.4015,4.5234-3.7422,1.5855-1.4918,3.0929-3.081,4.4564-4.779,1.1028-1.3733,2.1574-2.8424,2.8691-4.4619.6685-1.5212,1.0772-3.1428.3889-4.7341-.6976-1.6128-2.5022-2.3436-4.1433-2.4917-2.4439-.2205-4.9192.2761-7.2068,1.1119-2.7604,1.0085-5.3216,2.5343-7.6927,4.2564-2.4234,1.7601-4.6634,3.8034-6.5721,6.1147-1.8206,2.2046-3.3898,4.6185-4.1801,7.3907-.1543.5413-.2706,1.0925-.3433,1.6507-.0961.7385.3376,1.5444,1.0687,1.791.6381.2152,1.4708.0081,1.5968-.7607h0Z"/>
  <path d="M66.2661,74.5005c-.007.0059-.0927.0823-.0961.0799l.0321-.0148c.0626-.0281.0423-.021-.061.0214-.0963.0563-.1201.1342-.1758.2044-.132.166-.193.335-.2655.53-.1376.3699-.2756.733-.3905,1.1111-.0496.1634-.1016.326-.154.4885-.0548.1702.0383-.1112-.0184.0558-.0114.0335-.0226.0671-.034.1006-.0343.1006-.0691.2011-.1045.3013-.1184.3353-.2428.6685-.3719.9999-.2614.6711-.4988,1.3514-.7589,2.0233-.2592.6695-.526,1.3362-.7901,2.0038-.3472.8776-.6909,1.7568-1.012,2.6443-.1482.4096.0482.9482.3126,1.2625.2417.2872.7095.5744,1.1064.4631.8538-.2395,1.6561-.5623,2.4405-.9739.7679-.4029,1.507-.8592,2.2294-1.3382,1.6003-1.061,3.1311-2.2167,4.6904-3.3357.7594-.545,1.5275-1.0796,2.3251-1.5677l.2094-.2372c.0967-.1394.1542-.2919.1726-.4573.0615-.3122.0117-.5697-.0835-.8749-.4242-1.3608-1.3925-2.5079-2.662-3.1539-1.0158-.5169-2.1291-.7418-3.2277-1.0033-.5682-.1352-1.1351-.2849-1.6756-.5089l.2953.1231c-.56-.2341-1.0617-.5837-1.6204-.8185l.5076.2991-.0228-.0211c-.2105-.1955-.494-.3423-.7889-.335-.2723.0067-.5781.1586-.7323.388-.3541.5267-.2688,1.3061.2018,1.7431l.0228.0211-.1994-.2473c.1314.2319.3715.4704.5679.6586.2117.2029.4561.3589.7142.4939.4197.2196.8669.3957,1.3178.54.7461.2388,1.5175.3852,2.2766.5748.436.1089.868.2327,1.2876.3945l-.2994-.1162c.3723.1473.7273.3288,1.0559.5582l-.2745-.1932c.2359.1697.4526.3634.6458.5806l-.2339-.2633c.1831.2103.3408.4391.4753.6833l-.1778-.3263c.1425.2655.2562.5443.348.8311l.2985-1.5695c-1.8016,1.1245-3.4653,2.4567-5.1808,3.7047-.5209.379-1.0463.7516-1.5795,1.1131l.2593-.1745c-1.4005.9421-2.8743,1.8119-4.4677,2.3871l1.7055,1.6338c.4174-1.4477.9014-2.8747,1.3509-4.3124.225-.7198.4693-1.443.6395-2.178.1712-.7392.3232-1.4831.443-2.2324.0349-.218.0726-.4373.0963-.6569.0262-.2435.0188-.4925.0205-.7372.0017-.25.0132-.4981-.0566-.7406-.0117-.0408-.0257-.081-.0383-.1215-.0152-.0488-.0341-.1609-.0784-.2305-.0008-.0012-.0986-.1594-.0493-.0701-.0277-.0501-.0545-.1007-.0824-.1507-.0618-.1109-.1906-.1356-.2849-.0568h0Z"/>
  <path d="M67.5046,75.2143c1.104-1.6998,2.1516-3.436,3.1706-5.1879.9964-1.7129,1.9013-3.4782,2.8343-5.2262,1.843-3.4531,3.7071-6.9182,5.8338-10.2069,1.201-1.8572,2.4228-3.7005,3.4891-5.6391.2891-.5257-.423-1.1098-.8882-.7519-1.6018,1.2326-2.9536,2.7889-4.0971,4.4521-1.1285,1.6415-2.1772,3.3366-3.1782,5.0584-.9962,1.7135-1.9001,3.4843-2.8095,5.245-.9179,1.7773-1.8637,3.5456-2.7436,5.3418-.9837,2.008-1.9961,4.0025-3.0852,5.9556-.2046.3669.0759.8645.3852,1.0596.3052.1925.8543.2605,1.0888-.1005h0Z"/>
  <path d="M75.6822,79.5646c.5534-.8413,1.0946-1.6905,1.6257-2.546.521-.8393.9535-1.7375,1.4051-2.6157.4634-.9012.8563-1.8432,1.2707-2.7678.4387-.9787.8683-1.9607,1.2888-2.9474,1.5905-3.7326,3.1717-7.485,4.9662-11.1252.5436-1.1026,1.0833-2.208,1.6416-3.3032.3485-.6837.6954-1.3651,1.0261-2.0574.2711-.5674.452-1.2747.3765-1.8985-.0518-.4282-.4763-.7557-.8997-.6526-1.0301.2509-1.7573,1.4097-2.285,2.2561-.5537.8881-1.1111,1.7838-1.5983,2.7104-1.0377,1.974-1.9883,3.9934-2.8988,6.0288-1.7142,3.8325-3.152,7.7916-4.6637,11.7062-.423,1.0955-.814,2.2098-1.1885,3.323-.3781,1.1238-.6858,2.2736-1.0531,3.4016-.1793.5505.6598.9839.9862.4877h0Z"/>
  <path d="M53.2368,51.5847c-1.54-.7405-3.0515-1.5164-4.5121-2.4039-1.449-.8805-2.8625-1.7265-4.3102-2.6475-2.8352-1.8036-5.6034-3.7298-8.2773-5.7648-2.7847-2.1194-5.5305-4.3265-8.0651-6.7422-.3066-.2922-.61-.5876-.9116-.8849-.2701-.2663.1539.1559-.1133-.1129-.0814-.0818-.163-.1634-.2442-.2454-.1625-.164-.3242-.3287-.4853-.4941-.6445-.6619-1.2778-1.3348-1.902-2.0158-1.1948-1.3035-2.3495-2.6428-3.5161-3.9715-2.141-2.4384-4.4292-4.8338-6.1482-7.6005-.0545-.0877-.1086-.1756-.1616-.2642.1252.2094-.0475-.0842-.0589-.1041-.0851-.1483-.1683-.2978-.2494-.4484-.2086-.3879-.4032-.7835-.5794-1.1872-.1472-.3375-.282-.6804-.4015-1.0288-.011-.0321-.1133-.3488-.0339-.0931-.0247-.0794-.0479-.1593-.0707-.2393-.0532-.1869-.1017-.3751-.143-.565-.0643-.295-.1052-.5914-.1412-.8908-.0327-.2713.0059.254-.0015-.0159-.0021-.0763-.0061-.1525-.0071-.2289-.002-.1604.0023-.3209.0137-.4809.0027-.0387.0154-.3842.042-.3902-.0214.0048-.047.2451.0032.0011.0138-.0669.029-.1335.0457-.1998.0273-.1083.0586-.2156.0942-.3215.021-.0625.0451-.1237.0672-.1858.0609-.1704-.0993.2055.0266-.0537.0189-.0389.349-.6088.362-.5971.01.009-.1476.1797.0036.0034.0412-.048.0836-.0948.1272-.1406.0877-.0919.1804-.1792.2773-.2615.049-.0416.0997-.0806.1499-.1207-.2038.1628-.0304.0254.0146-.0043.1106-.0731.225-.1405.3423-.2022.1005-.0529.2032-.1016.3075-.1462.0642-.0275.1294-.0518.1941-.0777.0986-.0358.0884-.0324-.0306.0102.0456-.016.0917-.0304.1383-.043.2671-.0765.5436-.1252.8193-.1575.1618-.019.3237-.028.4862-.0382.2674-.0168-.1166-.0022.0487-.0018.1016.0003.2032.0017.3048.0055.7307.0276,1.4574.1497,2.1617.3443-.0168-.0046.2716.0802.1448.0411-.127-.0392.1599.0525.1432.047.1752.058.3488.1204.521.1868.3476.134.6887.2843,1.0232.4481.6609.3237,1.2989.6973,1.9031,1.1175,1.2242.8516,2.3489,1.8407,3.406,2.8904,1.0254,1.0182,1.9798,2.0616,2.8677,3.1503,1.0618,1.3019,2.1185,2.617,3.0147,4.0407.2152.3419.4213.6897.614,1.0449.0521.096.1061.1919.1537.2902-.1459-.3011.0113.0287.0337.0758.1082.2266.2104.456.3051.6885.1726.4235.3288.8556.4697,1.2907.0441.1362.0863.2729.126.4104.0337.1167.12.5676.0196.0521.0573.2945.1284.5823.1541.8825.0047.0546.0048.11.0107.1643-.0522-.4819.0064-.2848-.0089-.1519-.0064.0553-.015.1141-.018.1696-.013.2364.1085-.3858.0333-.1711-.0735.2097.2003-.34.0816-.1611-.0608.0917-.1458.1392.1488-.1685-.0175.0183-.0378.0334-.0566.0502-.1561.1396.3391-.2047.1949-.1285-.2851.1506.4189-.0638.0981-.0309-.1052.0108.4683.0404.2087-.0073-.2022-.0372.4031.1774.1836.0584-.0439-.0238-.0897-.0493-.1345-.071-.064-.0309.364.2831.1418.0851-.1401-.1249-.4298-.4909-.0527-.0169-.1962-.2466-.3935-.4888-.5692-.7515-.1074-.1605-.2097-.3244-.3087-.4903-.0439-.0735-.087-.1475-.1296-.2217-.0262-.0457-.0517-.0919-.078-.1375-.1186-.2065.22.4092.061.1107-.8919-1.6739-1.616-3.4371-2.2853-5.21-.2889-.7653-.5649-1.5353-.8251-2.3108-.0974-.2903-.192-.5815-.2843-.8735-.0901-.2849.1092.3635.0606.1993-.0146-.0493-.0297-.0985-.0441-.1478-.0222-.0758-.0444-.1516-.0641-.2281-.264-1.0238-.4461-2.0816-.602-3.1265-.0453-.3037-.086-.6081-.1218-.913-.0198-.1684-.0378-.3371-.0544-.5058-.014-.1421-.0486-.8324-.0268-.2645-.0251-.655-.0608-1.3046-.0353-1.9606.012-.3084.0333-.6165.0656-.9235.0161-.1525.0098-.3511.0622-.4953-.1024.2817-.0107.0721.0057-.017.0149-.0806.0307-.161.0474-.2412.0662-.3168.1472-.6307.2458-.939.0405-.1267.084-.2525.1305-.3771.0382-.1023.1694-.3339-.0261.0527.0473-.0935.084-.1935.1288-.2884.1232-.261.2574-.5167.4099-.7619.0825-.1327.1861-.2561.2638-.3909-.1913.3318-.0893.1208-.0191.0346.0502-.0617.1016-.1223.1542-.182.1061-.1203.217-.2364.3325-.3478.0639-.0617.1291-.1223.1961-.1806l.0782-.0666c.1156-.0932.1044-.0851-.0336.0243.067-.1042.2921-.191.3985-.2475.0789-.0419.1611-.0757.2407-.1157.1322-.0532.1068-.0456-.0762.0225.0536-.0179.1076-.0342.162-.0491.1331-.0362.2687-.0632.4055-.0805.0403-.0051.2157.0034.2432-.0207l-.1721.0063c.0541.0005.1082.0023.1622.0055.1626.0096.3244.0318.4839.0645.0537.011.1065.0252.1601.0366.132.0353.1065.0275-.0765-.0232.0533.017.1062.035.1587.054.2991.1082.5744.2548.8534.4054.2687.145-.2352-.1657.0185.0096.0739.0511.1488.1005.2218.1528.1724.1235.3396.2543.5017.3909.1167.0984.2324.1986.3433.3035.0669.0633.1303.1301.1959.1947.228.2247-.1958-.2226.0158.0162.2394.2701.4727.5431.6908.8309.4438.5855.8272,1.2151,1.2093,1.8417.2031.333.4102.6657.5993,1.0069-.1975-.3564.0699.1239.1182.2092.1173.2071.2332.415.3478.6236.3777.6874.7411,1.3826,1.0909,2.0846.7198,1.4446,1.3815,2.9181,1.9874,4.414,1.2446,3.0726,2.2626,6.2386,3.0713,9.4532,1.5797,6.2795,2.425,12.7311,2.7014,19.1964.0325.759.0356,1.5205.0775,2.2788.0204.369.0463.7378.0668,1.1069.0111.2008.025.4011.0355.6018.0231.4408.1131.9366.165,1.3991.021.1867.0348.8232.033.2989.0024.7088.5328,1.5316,1.3205,1.4996.7775-.0316,1.3507-.7068,1.3481-1.4748l-.0313.1992c.0254-.1669.046-.3343.0617-.5023.0105-.1012.0199-.2025.0296-.3037.0195-.203.0385-.406.057-.6091.0403-.4433.0542-.8816.057-1.3266.0052-.8253-.0255-1.6442-.0732-2.4681-.0984-1.6995-.2351-3.3969-.4116-5.0901-.3578-3.4337-.8757-6.8512-1.574-10.2324-1.4576-7.0586-3.6976-14.0155-7.0935-20.391-.8245-1.548-1.7119-3.0655-2.6686-4.5356-.8426-1.2948-1.869-2.5414-3.1298-3.4512-1.4254-1.0285-3.1046-1.5628-4.8034-.9072-1.4498.5595-2.6249,1.9948-3.2365,3.3913-1.2458,2.8447-1.1489,6.0378-.6971,9.0517.1543,1.0293.3255,2.0787.595,3.0852.1725.6442.3857,1.2802.5971,1.9127.5961,1.7837,1.2481,3.5532,2.0012,5.277.4212.964.8885,1.9058,1.4131,2.818.1907.3317.3931.658.6205.966.0444.0602.0897.1197.1364.1781.0243.0304.0488.0606.0737.0904.7991.9542-.5384-.5742.3071.3343.1007.1083.2029.2146.317.3091.754.6243,1.7558.8656,2.5786.2107,1.2465-.9923.7963-2.8546.3765-4.1359-1.0235-3.124-3.0826-5.6532-5.2364-8.0741-.1273-.1431-.2529-.2881-.3829-.4288-.2013-.2178.1611.1828-.039-.0408-.1048-.1171-.2066-.2371-.3111-.3545-.2618-.2942-.5233-.5885-.7892-.879-.534-.5833-1.0802-1.1556-1.6437-1.7104-1.135-1.1176-2.3415-2.1712-3.6566-3.0729-2.5127-1.7228-5.7308-3.1588-8.845-2.4831-1.2871.2793-2.3903.924-3.1617,2.002-.7343,1.0261-.9804,2.375-.9035,3.6135.2137,3.4414,2.2381,6.5719,4.2816,9.231,1.0154,1.3212,2.1036,2.5836,3.1682,3.8649,1.1981,1.4419,2.4196,2.8587,3.6877,4.2398,2.5824,2.8128,5.3163,5.4607,8.2754,7.8755,2.7481,2.2426,5.5776,4.3863,8.5149,6.3756,2.8889,1.9566,5.9441,3.7612,9.1232,5.2012,1.5963.723,3.1898,1.4573,4.8021,2.1441.3103.1322.6555-.0715.7527-.3788.1064-.3364-.0649-.6822-.3734-.8306h0Z"/>
</svg>